<?xml version="1.0" encoding="UTF-8"?>
<svg width="512px" height="512px" viewBox="0 0 512 512" version="1.1" xmlns="http://www.w3.org/2000/svg" xmlns:xlink="http://www.w3.org/1999/xlink">
    <!-- Generator: Sketch 50.2 (55047) - http://www.bohemiancoding.com/sketch -->
    <title>icon</title>
    <desc>Created with Sketch.</desc>
    <defs></defs>
    <g id="icon" stroke="none" stroke-width="1" fill="none" fill-rule="evenodd">
        <g>
            <circle id="Oval-Copy-2" fill="#FF5B24" cx="256" cy="256" r="256"></circle>
            <path d="M310.928712,209.438559 C330.502475,209.438559 347.277346,194.57842 347.277346,173.21928 L347.281611,173.21928 C347.281611,151.855022 330.502475,137 310.928712,137 C291.359214,137 274.588607,151.855022 274.588607,173.21928 C274.588607,194.57842 291.359214,209.438559 310.928712,209.438559 Z M358.458699,267.959419 C334.222485,299.530463 308.594644,321.358692 263.391619,321.358692 L263.397304,321.358692 C217.278847,321.358692 181.390772,293.494864 153.434548,252.631614 C142.24751,235.910759 125.006394,232.197856 112.423464,241.020975 C100.775866,249.382113 97.986925,267.028351 108.697768,282.356157 C147.37052,341.333312 200.954584,375.691876 263.391619,375.691876 C320.712751,375.691876 365.44811,347.833734 400.390901,301.392601 C413.434391,284.212608 412.969567,266.56637 400.390901,256.812183 C388.737618,247.515712 371.497923,250.780848 358.458699,267.959419 Z" id="Shape" fill="#FFFFFF"></path>
        </g>
    </g>
</svg>